<svg xmlns="http://www.w3.org/2000/svg" width="35" height="35" viewBox="0 0 35 35" fill="none">
  <rect width="35" height="35" transform="matrix(0 -1 1 0 0 35)" fill="white"/>
  <path d="M17.5 19.3127L24.7188 12.0939C24.8533 11.9546 25.0142 11.8435 25.1921 11.7671C25.3701 11.6907 25.5614 11.6504 25.7551 11.6487C25.9487 11.6471 26.1407 11.684 26.32 11.7573C26.4992 11.8306 26.662 11.9389 26.7989 12.0758C26.9359 12.2128 27.0441 12.3756 27.1175 12.5548C27.1908 12.734 27.2277 12.9261 27.226 13.1197C27.2243 13.3133 27.1841 13.5047 27.1077 13.6826C27.0312 13.8605 26.9201 14.0215 26.7809 14.156L18.5311 22.4058C18.2576 22.6792 17.8867 22.8328 17.5 22.8328C17.1133 22.8328 16.7425 22.6792 16.469 22.4058L8.21919 14.156C7.95354 13.8809 7.80655 13.5126 7.80987 13.1302C7.81319 12.7478 7.96656 12.3821 8.23695 12.1117C8.50734 11.8413 8.87311 11.6879 9.25548 11.6846C9.63785 11.6813 10.0062 11.8283 10.2813 12.0939L17.5 19.3127Z" fill="#697077"/>
</svg>
