<svg width="17" height="17" viewBox="0 0 17 17" fill="none" xmlns="http://www.w3.org/2000/svg">
<path id="Vector (Stroke)" fill-rule="evenodd" clip-rule="evenodd" d="M15.1489 1.19955e-07C15.3524 -0.00011363 15.5476 0.0806759 15.6915 0.224572L16.7754 1.30854C16.9193 1.45244 17.0001 1.64764 17 1.85114C16.9999 2.05465 16.9189 2.24975 16.7748 2.39349L3.46427 15.6738C3.40777 15.7302 3.34281 15.7774 3.27173 15.8138L1.11577 16.9159C0.819678 17.0673 0.459768 17.0106 0.224617 16.7754C-0.0105338 16.5403 -0.0673135 16.1804 0.0840285 15.8843L1.18621 13.7278C1.22255 13.6567 1.26977 13.5918 1.32617 13.5352L14.6065 0.225178C14.7503 0.0811213 14.9454 0.000113778 15.1489 1.19955e-07Z" fill="#494B56"/>
</svg>
