<svg xmlns="http://www.w3.org/2000/svg" width="32" height="32" viewBox="0 0 32 32" fill="none">
  <path d="M10.9891 0.87716C7.6881 1.99938 4.84136 4.12939 2.86698 6.95432C0.89259 9.77925 -0.105367 13.1502 0.0196877 16.5721C0.144742 19.9939 1.38622 23.2862 3.56176 25.9655C5.7373 28.6448 8.73224 30.5698 12.1067 31.4577C14.8424 32.1495 17.7086 32.1799 20.459 31.5462C22.9505 30.9978 25.254 29.8246 27.1439 28.1417C29.1109 26.3365 30.5386 24.0402 31.2736 21.4994C32.0725 18.7365 32.2146 15.8308 31.6891 13.0057H16.3267V19.2508H25.2236C25.0458 20.2468 24.6647 21.1975 24.1033 22.0459C23.5418 22.8942 22.8115 23.6229 21.956 24.1882C20.8696 24.8924 19.6449 25.3663 18.3606 25.5794C17.0725 25.8141 15.7513 25.8141 14.4632 25.5794C13.1576 25.3148 11.9226 24.7868 10.8368 24.0288C9.09237 22.8187 7.78256 21.0996 7.09425 19.1167C6.39431 17.0967 6.39431 14.9068 7.09425 12.8868C7.5842 11.4709 8.39416 10.1817 9.46366 9.11544C10.6876 7.87286 12.2371 6.98466 13.9422 6.54829C15.6473 6.11191 17.4421 6.14422 19.1297 6.64168C20.448 7.03827 21.6536 7.73119 22.6503 8.66521C23.6534 7.68717 24.6549 6.7066 25.6546 5.72351C26.1708 5.19486 26.7335 4.69151 27.242 4.15021C25.7206 2.76277 23.9348 1.68317 21.9869 0.973278C18.4398 -0.288922 14.5586 -0.322843 10.9891 0.87716Z" fill="white"/>
  <path d="M10.9891 0.87716C14.5583 -0.323658 18.4383 -0.290672 21.9857 0.970707C23.9339 1.68543 25.7189 2.77022 27.2382 4.16282C26.7219 4.70411 26.1773 5.21 25.6508 5.73611C24.6494 6.71584 23.65 7.69223 22.6503 8.66521C21.6536 7.73119 20.448 7.03827 19.1297 6.64168C17.4427 6.14248 15.6467 6.10826 13.9411 6.54285C12.2356 6.97744 10.6851 7.86401 9.45984 9.10528C8.39034 10.1715 7.58039 11.4607 7.09044 12.8766L1.73991 8.81693C3.65507 5.09506 6.97229 2.24816 10.9891 0.87716Z" fill="#FF3D00"/>
  <path d="M0.320044 12.8387C0.607628 11.4419 1.08536 10.0893 1.73991 8.81693L7.09015 12.8867C6.39021 14.9067 6.39021 17.0967 7.09015 19.1167C5.3075 20.4657 3.52399 21.8214 1.73962 23.184C0.101043 19.9876 -0.398696 16.3457 0.320044 12.8387Z" fill="#FFC107"/>
  <path d="M16.3263 13.0031H31.6888C32.2143 15.8283 32.0721 18.7339 31.2732 21.4969C30.5382 24.0376 29.1105 26.334 27.1435 28.1391C25.4168 26.8188 23.6827 25.5085 21.956 24.1882C22.812 23.6223 23.5424 22.8929 24.1038 22.0436C24.6653 21.1943 25.0461 20.2427 25.2232 19.2457H16.3263C16.3237 17.1665 16.3263 15.0848 16.3263 13.0031Z" fill="#1976D2"/>
  <path d="M1.73962 23.184C3.52399 21.8349 5.3075 20.4792 7.09015 19.1167C7.77983 21.1002 9.09045 22.8195 10.8368 24.0288C11.926 24.7833 13.1627 25.3069 14.4699 25.5666C15.758 25.8013 17.0793 25.8013 18.3673 25.5666C19.6517 25.3536 20.8763 24.8797 21.9628 24.1754C23.6895 25.4958 25.4239 26.806 27.1507 28.1264C25.2611 29.8103 22.9575 30.9843 20.4657 31.5335C17.7154 32.1671 14.8492 32.1367 12.1134 31.445C9.94975 30.8788 7.92872 29.8808 6.17702 28.5134C4.32295 27.0708 2.81065 25.2529 1.73962 23.184Z" fill="#4CAF50"/>
</svg>