<svg width="71" height="71" viewBox="0 0 71 71" fill="none" xmlns="http://www.w3.org/2000/svg">
<path id="Vector" d="M70.5 35.2869C70.5 35.6905 70.3397 36.0775 70.0543 36.3629C69.7689 36.6483 69.3819 36.8086 68.9783 36.8086H37.0217V68.7651C37.0217 69.1687 36.8614 69.5558 36.576 69.8412C36.2907 70.1265 35.9036 70.2869 35.5 70.2869C35.0964 70.2869 34.7094 70.1265 34.424 69.8412C34.1386 69.5558 33.9783 69.1687 33.9783 68.7651V36.8086H2.02174C1.61815 36.8086 1.23109 36.6483 0.945707 36.3629C0.660326 36.0775 0.5 35.6905 0.5 35.2869C0.5 34.8833 0.660326 34.4962 0.945707 34.2108C1.23109 33.9255 1.61815 33.7651 2.02174 33.7651H33.9783V1.8086C33.9783 1.40501 34.1386 1.01795 34.424 0.732573C34.7094 0.447191 35.0964 0.286865 35.5 0.286865C35.9036 0.286865 36.2907 0.447191 36.576 0.732573C36.8614 1.01795 37.0217 1.40501 37.0217 1.8086V33.7651H68.9783C69.3819 33.7651 69.7689 33.9255 70.0543 34.2108C70.3397 34.4962 70.5 34.8833 70.5 35.2869Z" fill="white" fill-opacity="0.8"/>
</svg>
