<svg width="147" height="26" viewBox="0 0 147 26" fill="none" xmlns="http://www.w3.org/2000/svg">
<g id="PUREVER">
<path d="M9.568 12.92C11.776 12.92 13.312 11.256 13.312 8.92001C13.312 6.58401 11.776 4.92001 9.568 4.92001H4.864V12.92H9.568ZM9.728 0.76001C14.688 0.76001 18.176 4.12001 18.176 8.92001C18.176 13.72 14.688 17.08 9.728 17.08H4.864V25.016H0V0.76001H9.728Z" fill="#69D1DE"/>
<path d="M30.5188 25.24C24.4388 25.24 20.8228 21.112 20.8228 15.224V0.76001H25.6868V15.16C25.6868 18.552 27.1588 20.696 30.5188 20.696C33.8788 20.696 35.3508 18.552 35.3508 15.16V0.76001H40.2148V15.224C40.2148 21.112 36.5988 25.24 30.5188 25.24Z" fill="#69D1DE"/>
<path d="M53.1153 12.92C55.3873 12.92 56.8273 11.576 56.8273 8.92001C56.8273 6.26401 55.3873 4.92001 53.1153 4.92001H48.5073V12.92H53.1153ZM62.8433 25.016H57.0193L51.8033 17.08H48.5073V25.016H43.6433V0.76001H54.1713C58.5873 0.76001 61.6913 3.86401 61.6913 8.72801C61.6913 11.608 60.9233 14.04 57.0513 16.216L62.8433 25.016Z" fill="#69D1DE"/>
<path d="M81.562 0.76001V4.92001H69.882V10.456H79.866V14.616H69.882V20.856H81.562V25.016H65.018V0.76001H81.562Z" fill="#69D1DE"/>
<path d="M105.866 0.76001L97.8338 25.016H91.9458L83.2098 0.76001H88.3938L94.8258 18.68L100.746 0.76001H105.866Z" fill="#69D1DE"/>
<path d="M124.329 0.76001V4.92001H112.649V10.456H122.633V14.616H112.649V20.856H124.329V25.016H107.785V0.76001H124.329Z" fill="#69D1DE"/>
<path d="M136.963 12.92C139.235 12.92 140.675 11.576 140.675 8.92001C140.675 6.26401 139.235 4.92001 136.963 4.92001H132.355V12.92H136.963ZM146.691 25.016H140.867L135.651 17.08H132.355V25.016H127.491V0.76001H138.019C142.435 0.76001 145.539 3.86401 145.539 8.72801C145.539 11.608 144.771 14.04 140.899 16.216L146.691 25.016Z" fill="#69D1DE"/>
</g>
</svg>
